<svg t="1651582883594" class="icon" viewBox="0 0 1024 1024" version="1.1" xmlns="http://www.w3.org/2000/svg" p-id="10714" width="200" height="200"><path d="M157.538462 748.307692a354.461538 157.538462 0 1 0 708.923076 0 354.461538 157.538462 0 1 0-708.923076 0Z" fill="#FF8341" p-id="10715"></path><path d="M512 315.076923C296.881231 315.076923 118.153846 394.515692 118.153846 512s178.727385 196.923077 393.846154 196.923077 393.846154-79.438769 393.846154-196.923077-178.727385-196.923077-393.846154-196.923077z m0 78.769231c176.443077 0 315.076923 61.636923 315.076923 118.153846s-138.633846 118.153846-315.076923 118.153846-315.076923-61.636923-315.076923-118.153846 138.633846-118.153846 315.076923-118.153846z" fill="#191C3D" p-id="10716"></path><path d="M512 78.769231C296.881231 78.769231 118.153846 158.208 118.153846 275.692308s178.727385 196.923077 393.846154 196.923077 393.846154-79.438769 393.846154-196.923077-178.727385-196.923077-393.846154-196.923077z m0 78.769231c176.443077 0 315.076923 61.636923 315.076923 118.153846s-138.633846 118.153846-315.076923 118.153846-315.076923-61.636923-315.076923-118.153846 138.633846-118.153846 315.076923-118.153846z" fill="#191C3D" p-id="10717"></path></svg>